<?xml version="1.0" encoding="utf-8"?>
<!-- Generator: Adobe Illustrator 21.0.0, SVG Export Plug-In . SVG Version: 6.00 Build 0)  -->
<svg version="1.1" id="Layer_1" xmlns="http://www.w3.org/2000/svg" xmlns:xlink="http://www.w3.org/1999/xlink" x="0px" y="0px"
	 viewBox="0 0 214 219" style="enable-background:new 0 0 214 219;" xml:space="preserve">
<g>
	<g>
		<path d="M23,166c0-15.5,12.5-28,28-28s28,12.5,28,28c0,15.5-12.5,28-28,28S23,181.5,23,166z M108,188.4c12.4,0,22.4-10,22.4-22.4
			c0-12.4-10-22.4-22.4-22.4s-22.4,10-22.4,22.4C85.6,178.4,95.6,188.4,108,188.4z M156,181c8.3,0,15-6.7,15-15c0-8.3-6.7-15-15-15
			s-15,6.7-15,15C141,174.3,147.7,181,156,181z M187,173c3.9,0,7-3.1,7-7c0-3.9-3.1-7-7-7s-7,3.1-7,7C180,169.9,183.1,173,187,173z"
			/>
	</g>
	<g>
		<path d="M23,110c0-15.5,12.5-28,28-28s28,12.5,28,28c0,15.5-12.5,28-28,28S23,125.5,23,110z M108,132.4c12.4,0,22.4-10,22.4-22.4
			c0-12.4-10-22.4-22.4-22.4s-22.4,10-22.4,22.4C85.6,122.4,95.6,132.4,108,132.4z M156,125c8.3,0,15-6.7,15-15c0-8.3-6.7-15-15-15
			s-15,6.7-15,15C141,118.3,147.7,125,156,125z M187,117c3.9,0,7-3.1,7-7c0-3.9-3.1-7-7-7s-7,3.1-7,7C180,113.9,183.1,117,187,117z"
			/>
	</g>
	<g>
		<path d="M23,54c0-15.5,12.5-28,28-28s28,12.5,28,28c0,15.5-12.5,28-28,28S23,69.5,23,54z M108,76.4c12.4,0,22.4-10,22.4-22.4
			c0-12.4-10-22.4-22.4-22.4S85.6,41.6,85.6,54C85.6,66.4,95.6,76.4,108,76.4z M156,69c8.3,0,15-6.7,15-15c0-8.3-6.7-15-15-15
			s-15,6.7-15,15C141,62.3,147.7,69,156,69z M187,61c3.9,0,7-3.1,7-7c0-3.9-3.1-7-7-7s-7,3.1-7,7C180,57.9,183.1,61,187,61z"/>
	</g>
</g>
</svg>
