<?xml version="1.0" encoding="utf-8"?>
<!-- Generator: Adobe Illustrator 21.0.0, SVG Export Plug-In . SVG Version: 6.00 Build 0)  -->
<svg version="1.1" id="Layer_1" xmlns="http://www.w3.org/2000/svg" xmlns:xlink="http://www.w3.org/1999/xlink" x="0px" y="0px"
	 viewBox="0 0 97 121" style="enable-background:new 0 0 97 121;" xml:space="preserve">
<g>
	<path d="M65.7,15.4c0.1,0.2,1.1,2.9,2.2,7.4c0.3,1.1,1.3,1.9,2.4,1.9l0,0c1.6,0,2.8-1.5,2.4-3.1c-1.1-4.6-2.2-7.5-2.4-8
		C69.8,11.9,69,10.4,68,9c-0.5-0.7-1.2-1.1-2.1-1.1h0c-2,0-3.2,2.2-2.1,3.9C64.6,12.8,65.2,14.1,65.7,15.4z"/>
	<path d="M40.4,80.4L40.4,80.4c0,2.4,3.1,3.4,4.4,1.4c5.5-7.9,8.4-16,9.8-23.2c3.8-20-2.6-37.2-2.9-37.9c-0.5-1.3-1.9-1.9-3.2-1.4
		c-1.3,0.5-1.9,1.9-1.4,3.2c0.1,0.2,6.2,16.6,2.6,35.2c-1.5,7.9-4.5,15-8.9,21.3C40.6,79.4,40.4,79.9,40.4,80.4z"/>
	<path d="M58.5,24.7L58.5,24.7c2.5,0,4.2-2.4,3.5-4.8c-0.5-1.5-0.8-2.5-0.9-2.8c-1.2-3.1-3.5-5.6-6.5-6.9c-3-1.4-6.4-1.5-9.5-0.3
		c-3.1,1.2-5.6,3.5-7,6.5c-0.9,2.1-1.3,4.3-1,6.5c0.1,1,1,1.7,2,1.7h0c0.8,0,1.4,0.6,1.4,1.4l0,10.8c0,0.9,0,1.7,0.1,2.6
		c0,0.2,0,0.3,0,0.5c0.3,3.5,0.4,7.8-0.2,12.5c0,0.1,0,0.2,0,0.3v0c0,3.1,4.6,3.4,5,0.3c0.5-4.3,0.6-8.9,0.2-13.5
		c-0.8-8.9-3.1-15.1-3.1-15.1c-0.7-1.9-0.6-3.9,0.2-5.7c0.8-1.8,2.3-3.2,4.2-3.9c0.9-0.3,1.8-0.5,2.7-0.5c1,0,2.1,0.2,3,0.7
		c1.8,0.8,3.2,2.3,3.9,4.1"/>
	<path d="M58.5,97v-8.6c-4.4,6.7-9.8,12.7-16.3,18c-1.1,0.9-1.8,2.3-1.8,3.7v0.4c0,1.4,1.7,2.2,2.7,1.3C47.3,108.2,55,101.5,58.5,97
		z"/>
	<path d="M57.8,79.7c0.2-0.3,0.3-0.6,0.5-0.9c0.2-0.3,0.3-0.7,0.3-1.1v0c0-2.6-3.6-3.5-4.7-1.1c-0.1,0.3-0.3,0.5-0.4,0.8
		c-3.1,6.1-7.2,11.6-12.2,16.5c-0.5,0.5-0.8,1.1-0.8,1.8v0c0,2.2,2.7,3.3,4.3,1.8C50,92.2,54.5,86.2,57.8,79.7z"/>
	<path d="M24.5,10.2L24.5,10.2C25,9.2,24.2,8,23.1,8h0c-1.9,0-3.6,1.2-4.1,3.1c-0.9,3.2-2,8.2-1.9,12.1c0,0.8,0.7,1.5,1.6,1.5l1.6,0
		c1.1,0,1.8-0.7,1.8-1.6C21.8,18.7,22.6,14.3,24.5,10.2z"/>
	<path d="M84.4,8.2c0.1,0.3,2.3,6.1,4,15.1c0.1,0.8,0.8,1.3,1.6,1.3l0,0c0.9,0,1.6-0.7,1.6-1.6l0-3.9c0-3.3-0.5-6.5-1.5-9.6
		C90.1,9.4,90,9.2,89.9,9c-0.2-0.7-0.8-1.1-1.5-1.1l-4.2,0C84.3,8,84.3,8.1,84.4,8.2z"/>
	<path d="M12,22.3c-0.1-3.8,0.5-7.7,1.6-11.4c0.5-1.5-0.7-3-2.3-3H11c-1,0-1.9,0.7-2.2,1.6l0,0.1c-1,3.2-1.5,6.6-1.5,10l0,2.8
		c0,1.3,1.1,2.4,2.4,2.4h0C11,24.7,12.1,23.6,12,22.3z"/>
	<path d="M47.2,115.2H55c1.2-1.1,2.4-2.2,3.5-3.3v-7.2C55.1,108.4,51.4,111.9,47.2,115.2z"/>
	<path d="M75.1,11.8c0.1,0.3,1.6,4.3,3.1,10.9c0.3,1.1,1.3,2,2.4,2h0c1.6,0,2.8-1.5,2.4-3C81.6,15,80,10.7,79.7,10
		c-0.1-0.2-0.2-0.4-0.2-0.6c-0.4-0.9-1.3-1.6-2.3-1.6h0c-1.8,0-3,1.8-2.3,3.4C74.9,11.5,75,11.6,75.1,11.8z"/>
	<path d="M33.6,14.4c0.4-1,0.9-1.9,1.5-2.7c1.1-1.6-0.1-3.8-2.1-3.8h0c-0.8,0-1.6,0.4-2.1,1.1c-0.7,1.1-1.4,2.2-1.9,3.4
		c-1.5,3.2-2.1,6.6-2,10c0,1.3,1.2,2.4,2.5,2.4h0c1.4,0,2.5-1.2,2.5-2.6C31.9,19.5,32.4,16.9,33.6,14.4z"/>
</g>
</svg>
